# xmcd
#
# Track frame offsets:
#	150
#	19025
#	34796
#	54505
#	74764
#	90249
#	111372
#	128112
#	147140
#	166740
#	189228
#
# Disc length: 2678 seconds
#
# Revision: 0
# Processed by: cddbd v1.5.2PL0 Copyright (c) Steve Scherf et al.
# Submitted via: EasyCDDAExtractor 8.2.3.1
#
DISCID=8d0a740b
DTITLE=Asleep At The Wheel - Live At Ebbets Field 1973
DYEAR=1973
DGENRE=Country
TTITLE0=Well  Oh Well
TTITLE1=Hey Good Lookin'
TTITLE2=Before You Stop Lovin' Me
TTITLE3=Shoe Shine Swing
TTITLE4=I Got A Lot Of Rhythm In My Soul
TTITLE5=Hillbilly Nut
TTITLE6=Phantom 309
TTITLE7=Take Me Back To Tulda
TTITLE8=Our Names Aren't Mentioned Together
TTITLE9=Cherokee Boogie
TTITLE10=I've Been Everywhere
EXTD=
EXTT0=
EXTT1=
EXTT2=
EXTT3=
EXTT4=
EXTT5=
EXTT6=
EXTT7=
EXTT8=
EXTT9=
EXTT10=Bismeaux productions p1973  ©2004
PLAYORDER=
